<?xml version="1.0" standalone="no"?>
<!DOCTYPE svg PUBLIC "-//W3C//DTD SVG 20010904//EN"
 "http://www.w3.org/TR/2001/REC-SVG-20010904/DTD/svg10.dtd">
<svg version="1.0" xmlns="http://www.w3.org/2000/svg"
 width="512.000000pt" height="512.000000pt" viewBox="0 0 512.000000 512.000000"
 preserveAspectRatio="xMidYMid meet">
<metadata>
Created by potrace 1.11, written by Peter Selinger 2001-2013
</metadata>
<g transform="translate(0.000000,512.000000) scale(0.100000,-0.100000)"
fill="#000000" stroke="none">
<path d="M313 4843 c-44 -9 -100 -74 -126 -148 -59 -166 -76 -278 -72 -460 3
-172 18 -240 82 -377 l41 -86 -29 8 c-64 19 -153 -21 -185 -82 -21 -39 -27
-182 -13 -273 35 -227 165 -459 352 -634 119 -111 290 -204 442 -242 140 -34
332 -27 453 15 35 13 43 12 96 -11 60 -25 157 -35 208 -20 25 7 45 -11 287
-254 144 -143 261 -263 261 -267 0 -3 -127 -134 -282 -289 -156 -156 -288
-295 -295 -311 -9 -21 -8 -36 3 -67 l13 -40 -65 -66 -66 -66 -40 14 c-90 31
-159 -45 -123 -133 13 -31 12 -32 -54 -97 l-66 -66 -39 13 c-57 19 -82 7 -168
-82 -83 -85 -112 -133 -125 -208 -43 -245 212 -436 442 -331 54 25 126 94 683
650 342 342 626 623 631 625 5 2 285 -273 622 -610 338 -338 630 -625 649
-639 122 -89 297 -72 403 38 83 85 110 204 71 318 -19 59 -33 78 -121 167 -77
79 -104 91 -159 72 l-39 -13 -66 66 -67 65 14 33 c7 18 11 45 8 61 -11 63 -91
101 -142 68 -24 -16 -25 -16 -94 53 -70 70 -70 70 -55 99 15 30 14 63 -2 92
-5 9 -137 144 -292 299 l-283 284 264 264 c188 188 270 263 281 260 63 -20
177 -8 230 24 29 18 32 18 122 -6 164 -43 354 -33 517 28 316 118 581 417 671
759 30 113 33 308 6 358 -33 61 -127 103 -184 81 -30 -11 -29 -1 7 71 16 32
42 99 56 147 24 78 27 106 28 243 1 203 -9 269 -66 438 -38 112 -78 156 -151
167 -77 12 -125 -13 -189 -97 -60 -79 -171 -129 -473 -213 -316 -88 -353 -101
-504 -177 -155 -79 -320 -209 -401 -317 -14 -18 -31 -39 -38 -47 -29 -30 -101
-187 -118 -256 -35 -142 -19 -305 43 -446 9 -21 11 -37 5 -45 -26 -33 -41
-112 -37 -191 l3 -83 -259 -258 -259 -259 -264 264 c-260 260 -263 264 -254
294 17 59 5 157 -28 218 -13 24 -12 32 10 90 40 104 60 220 45 270 -10 37 -44
68 -74 68 -19 0 -25 9 -34 46 -7 26 -23 73 -36 106 l-24 59 19 32 c24 39 25
70 3 108 -23 38 -71 54 -118 39 -34 -11 -37 -10 -73 25 -20 20 -56 51 -80 68
-29 21 -39 34 -32 41 19 19 11 73 -15 105 -32 38 -198 120 -335 165 -58 19
-193 59 -301 89 -300 84 -412 139 -468 230 -35 58 -110 85 -188 70z"/>
</g>
</svg>
